<svg xmlns="http://www.w3.org/2000/svg" xmlns:xlink="http://www.w3.org/1999/xlink" contentStyleType="text/css" data-diagram-type="DESCRIPTION" height="372px" preserveAspectRatio="none" style="width:614px;height:372px;background:#FFFFFF;" version="1.1" viewBox="0 0 614 372" width="614px" zoomAndPan="magnify"><title>STEMgraph-API Architecture</title><defs/><g><g class="title" data-source-line="3"><text fill="#000000" font-family="sans-serif" font-size="14" font-weight="bold" lengthAdjust="spacing" textLength="206.8008" x="196.7128" y="23.5352">STEMgraph-API Architecture</text></g><!--entity User--><g class="entity" data-entity="User" data-source-line="5" data-uid="ent0002" id="entity_User"><ellipse cx="292.8626" cy="51.4883" fill="#F1F1F1" rx="8" ry="8" style="stroke:#181818;stroke-width:0.5;"/><path d="M292.8626,59.4883 L292.8626,86.4883 M279.8626,67.4883 L305.8626,67.4883 M292.8626,86.4883 L279.8626,101.4883 M292.8626,86.4883 L305.8626,101.4883" fill="none" style="stroke:#181818;stroke-width:0.5;"/><text fill="#000000" font-family="sans-serif" font-size="14" lengthAdjust="spacing" textLength="30.3652" x="277.68" y="116.5234">User</text></g><!--entity setup--><g class="entity" data-entity="setup" data-source-line="7" data-uid="ent0003" id="entity_setup"><rect fill="#F1F1F1" height="36.4883" rx="2.5" ry="2.5" style="stroke:#181818;stroke-width:0.5;" width="57.6729" x="42.02" y="196.4683"/><text fill="#000000" font-family="sans-serif" font-size="14" lengthAdjust="spacing" textLength="37.6729" x="52.02" y="220.0034">setup</text></g><!--entity parser--><g class="entity" data-entity="parser" data-source-line="8" data-uid="ent0004" id="entity_parser"><rect fill="#F1F1F1" height="36.4883" rx="2.5" ry="2.5" style="stroke:#181818;stroke-width:0.5;" width="143.9697" x="181.87" y="196.4683"/><text fill="#000000" font-family="sans-serif" font-size="14" lengthAdjust="spacing" textLength="123.9697" x="191.87" y="220.0034">stemgraph-parser</text></g><!--entity api--><g class="entity" data-entity="api" data-source-line="9" data-uid="ent0005" id="entity_api"><rect fill="#F1F1F1" height="36.4883" rx="2.5" ry="2.5" style="stroke:#181818;stroke-width:0.5;" width="40.5898" x="399.56" y="196.4683"/><text fill="#000000" font-family="sans-serif" font-size="14" lengthAdjust="spacing" textLength="20.5898" x="409.56" y="220.0034">api</text></g><!--entity data--><g class="entity" data-entity="data" data-source-line="11" data-uid="ent0006" id="entity_data"><path d="M409.33,320.4583 C409.33,310.4583 462.8613,310.4583 462.8613,310.4583 C462.8613,310.4583 516.3925,310.4583 516.3925,320.4583 L516.3925,345.9466 C516.3925,355.9466 462.8613,355.9466 462.8613,355.9466 C462.8613,355.9466 409.33,355.9466 409.33,345.9466 L409.33,320.4583" fill="#F1F1F1" style="stroke:#181818;stroke-width:0.5;"/><path d="M409.33,320.4583 C409.33,330.4583 462.8613,330.4583 462.8613,330.4583 C462.8613,330.4583 516.3925,330.4583 516.3925,320.4583" fill="none" style="stroke:#181818;stroke-width:0.5;"/><text fill="#000000" font-family="sans-serif" font-size="14" lengthAdjust="spacing" textLength="87.0625" x="419.33" y="347.9934">data-volume</text></g><!--entity gh--><g class="entity" data-entity="gh" data-source-line="12" data-uid="ent0007" id="entity_gh"><path d="M6,320.4583 C6,310.4583 65.8579,310.4583 65.8579,310.4583 C65.8579,310.4583 125.7158,310.4583 125.7158,320.4583 L125.7158,345.9466 C125.7158,355.9466 65.8579,355.9466 65.8579,355.9466 C65.8579,355.9466 6,355.9466 6,345.9466 L6,320.4583" fill="#F1F1F1" style="stroke:#181818;stroke-width:0.5;"/><path d="M6,320.4583 C6,330.4583 65.8579,330.4583 65.8579,330.4583 C65.8579,330.4583 125.7158,330.4583 125.7158,320.4583" fill="none" style="stroke:#181818;stroke-width:0.5;"/><text fill="#000000" font-family="sans-serif" font-size="14" lengthAdjust="spacing" textLength="99.7158" x="16" y="347.9934">gh-credentials</text></g><!--entity github--><g class="entity" data-entity="github" data-source-line="14" data-uid="ent0008" id="entity_github"><path d="M210.5718,319.4923 C215.1534,312.2784 220.8408,311.055 226.1921,318.6822 C229.4475,312.3487 236.4552,310.3009 240.9613,317.2964 C245.2585,309.6263 250.2026,309.5236 254.9872,316.8402 C259.7922,311.6355 264.3593,311.7191 268.551,317.5912 C272.8252,310.1337 278.1733,310.7223 283.0351,316.9703 C289.0645,310.1351 294.6754,309.2796 299.3924,318.3223 C307.8654,322.38 308.9852,326.8176 301.7313,333.3268 C309.1981,340.8419 306.0228,346.1606 297.734,349.8683 C294.3895,357.0702 288.7902,355.7595 284.6284,350.745 C280.9957,358.0984 274.0886,360.2859 268.8448,352.4155 C264.95,359.0982 258.9058,358.2829 255.173,352.2415 C250.703,359.9678 243.306,360.326 239.5349,351.578 C235.6291,358.0821 228.8057,358.7317 225.228,351.2426 C220.4861,358.6023 214.2621,357.1514 210.9883,349.8196 C199.2623,350.2725 195.4778,343.8589 200.9645,333.6448 C197.6021,324.4938 201.4239,320.1508 210.5718,319.4923" fill="#F1F1F1" style="stroke:#181818;stroke-width:0.5;"/><text fill="#000000" font-family="sans-serif" font-size="14" lengthAdjust="spacing" textLength="73.0488" x="217.33" y="338.4934">GitHub API</text></g><!--link User to setup--><g class="link" data-entity-1="User" data-entity-2="setup" data-source-line="16" data-uid="lnk9" id="link_User_setup"><path d="M277.25,91.4783 C240.43,113.2783 152.8825,165.1307 105.2525,193.3407" fill="none" id="User-to-setup" style="stroke:#181818;stroke-width:1;"/><polygon fill="#181818" points="100.09,196.3983,109.8721,195.2535,104.3921,193.8503,105.7953,188.3702,100.09,196.3983" style="stroke:#181818;stroke-width:1;"/><text fill="#000000" font-family="sans-serif" font-size="13" lengthAdjust="spacing" textLength="44.624" x="176.2" y="163.0366">1. auth</text></g><!--link setup to gh--><g class="link" data-entity-1="setup" data-entity-2="gh" data-source-line="17" data-uid="lnk10" id="link_setup_gh"><path d="M44.64,233.3983 C35.3,241.2383 25.87,251.3383 20.86,262.9583 C13.6,279.8183 20.6122,292.8808 33.6722,305.9708" fill="none" id="setup-to-gh" style="stroke:#181818;stroke-width:1;"/><polygon fill="#181818" points="37.91,310.2183,34.385,301.0218,34.3785,306.6787,28.7217,306.6722,37.91,310.2183" style="stroke:#181818;stroke-width:1;"/><text fill="#000000" font-family="sans-serif" font-size="13" lengthAdjust="spacing" textLength="78.5332" x="21.86" y="276.5266">stores token</text></g><!--link User to parser--><g class="link" data-entity-1="User" data-entity-2="parser" data-source-line="19" data-uid="lnk11" id="link_User_parser"><path d="M277.22,100.8383 C267.55,113.6283 256.02,131.4783 250.86,149.4683 C246.46,164.8183 246.9441,177.1465 249.0841,190.2665" fill="none" id="User-to-parser" style="stroke:#181818;stroke-width:1;"/><polygon fill="#181818" points="250.05,196.1883,252.549,186.6617,249.2451,191.2535,244.6533,187.9496,250.05,196.1883" style="stroke:#181818;stroke-width:1;"/><text fill="#000000" font-family="sans-serif" font-size="13" lengthAdjust="spacing" textLength="37.9019" x="251.86" y="163.0366">2. run</text></g><!--link parser to gh--><g class="link" data-entity-1="parser" data-entity-2="gh" data-source-line="20" data-uid="lnk12" id="link_parser_gh"><path d="M222.89,233.3283 C207.71,242.0783 189.22,252.8983 172.86,262.9583 C147.98,278.2583 125.3243,292.8933 104.3543,306.6733" fill="none" id="parser-to-gh" style="stroke:#181818;stroke-width:1;"/><polygon fill="#181818" points="99.34,309.9683,109.0581,308.3686,103.5186,307.2224,104.6647,301.6829,99.34,309.9683" style="stroke:#181818;stroke-width:1;"/><text fill="#000000" font-family="sans-serif" font-size="13" lengthAdjust="spacing" textLength="68.4341" x="173.86" y="276.5266">uses token</text></g><!--link parser to github--><g class="link" data-entity-1="parser" data-entity-2="github" data-source-line="21" data-uid="lnk13" id="link_parser_github"><path d="M252.48,233.2083 C251.85,242.1083 251.17,253.0983 250.86,262.9583 C250.36,278.5983 250.7468,290.2212 251.6368,303.7712" fill="none" id="parser-to-github" style="stroke:#181818;stroke-width:1;"/><polygon fill="#181818" points="252.03,309.7583,255.4315,300.5155,251.7023,304.769,247.4487,301.0398,252.03,309.7583" style="stroke:#181818;stroke-width:1;"/><text fill="#000000" font-family="sans-serif" font-size="13" lengthAdjust="spacing" textLength="84.9507" x="251.86" y="276.5266">fetches repos</text></g><!--link parser to data--><g class="link" data-entity-1="parser" data-entity-2="data" data-source-line="22" data-uid="lnk14" id="link_parser_data"><path d="M286.57,233.2983 C302.92,242.1283 322.98,253.0283 340.86,262.9583 C368.86,278.5083 395.07,293.3724 419.02,307.0524" fill="none" id="parser-to-data" style="stroke:#181818;stroke-width:1;"/><polygon fill="#181818" points="424.23,310.0283,418.3989,302.0911,419.8883,307.5484,414.4311,309.0378,424.23,310.0283" style="stroke:#181818;stroke-width:1;"/><text fill="#000000" font-family="sans-serif" font-size="13" lengthAdjust="spacing" textLength="111.2617" x="372.09" y="276.5266">writes jsonld.json</text></g><!--link User to api--><g class="link" data-entity-1="User" data-entity-2="api" data-source-line="24" data-uid="lnk15" id="link_User_api"><path d="M303.22,119.7883 C309.05,135.6283 317.65,153.3883 329.86,166.4683 C349,186.9883 373.4241,198.2455 393.4741,205.3455" fill="none" id="User-to-api" style="stroke:#181818;stroke-width:1;"/><polygon fill="#181818" points="399.13,207.3483,391.9814,200.5735,394.4168,205.6793,389.311,208.1146,399.13,207.3483" style="stroke:#181818;stroke-width:1;"/><text fill="#000000" font-family="sans-serif" font-size="13" lengthAdjust="spacing" textLength="45.2969" x="330.86" y="163.0366">3. start</text></g><!--link api to User--><g class="link" data-entity-1="api" data-entity-2="User" data-source-line="26" data-uid="lnk17" id="link_api_User"><path d="M411.5,196.1783 C404.48,182.5483 393.59,163.6383 380.86,149.4683 C358.88,125.0183 332.0817,106.4183 313.3317,94.6483" fill="none" id="api-to-User" style="stroke:#181818;stroke-width:1;"/><polygon fill="#181818" points="308.25,91.4583,313.746,99.6311,312.4848,94.1166,317.9993,92.8554,308.25,91.4583" style="stroke:#181818;stroke-width:1;"/><text fill="#000000" font-family="sans-serif" font-size="13" lengthAdjust="spacing" textLength="137.5981" x="394.49" y="163.0366">http://localhost:8000</text></g><!--link api to data--><g class="link" data-entity-1="api" data-entity-2="data" data-source-line="25" data-uid="lnk16" id="link_api_data"><path d="M440.37,222.4383 C458.09,229.4583 482.58,242.3783 493.86,262.9583 C502.28,278.3183 497.1622,291.595 486.8622,305.435" fill="none" id="api-to-data" style="stroke:#181818;stroke-width:1;"/><polygon fill="#181818" points="483.28,310.2483,491.8621,305.4164,486.2651,306.2372,485.4444,300.6402,483.28,310.2483" style="stroke:#181818;stroke-width:1;"/><text fill="#000000" font-family="sans-serif" font-size="13" lengthAdjust="spacing" textLength="107.9863" x="498.24" y="276.5266">reads jsonld.json</text></g><!--SRC=[LP3FJiCm3CRlUGfhztO3BcW7f0aXu82417i0DmrDQ9PKZiDU7wU1AJlvp-_xOZjfTc51mXCCgEU9OWxZO_IHu6mT6wNOiJVmyVdqDX4kjZkylyA1T86QCua2DOlyc0mfHTB4C8bZampdPGEOOCsk49jJVKr6YszLrRILuU9M8b6f4Ha7JD8kMVSJVJwP5PUwmPFjD9dH17ReqwgOh5BQnpp2vjdnInv0hgZ4iSs3KcLxwBg7kYliuQO7p6nLhGkPhBIJd6eIS9nDQ5nrT-6tFL0Ewg- -s7Awc5gq3XVyPLXRKP1POceLvIhXPvBVJl2TOl1ZNq8pMtv797Uzx8R4gfIDbGoEryv_mR5kR9cN_NRheqPlO-Bz_MwtKxy0]--></g></svg>