<?xml version="1.0" encoding="UTF-8" standalone="no"?><svg xmlns="http://www.w3.org/2000/svg" xmlns:xlink="http://www.w3.org/1999/xlink" contentScriptType="application/ecmascript" contentStyleType="text/css" height="412px" preserveAspectRatio="none" style="width:432px;height:412px;" version="1.1" viewBox="0 0 432 412" width="432px" zoomAndPan="magnify"><defs><filter height="300%" id="f1krzk9ibkygli" width="300%" x="-1" y="-1"><feGaussianBlur result="blurOut" stdDeviation="2.0"/><feColorMatrix in="blurOut" result="blurOut2" type="matrix" values="0 0 0 0 0 0 0 0 0 0 0 0 0 0 0 0 0 0 .4 0"/><feOffset dx="4.0" dy="4.0" in="blurOut2" result="blurOut3"/><feBlend in="SourceGraphic" in2="blurOut3" mode="normal"/></filter></defs><g><!--MD5=[f1c0a547cff35167021f9323eb4570b9]
cluster STEMgraph-API--><rect fill="#FFFFFF" filter="url(#f1krzk9ibkygli)" height="377" style="stroke: #000000; stroke-width: 1.5;" width="216" x="205" y="24"/><text fill="#000000" font-family="sans-serif" font-size="14" font-weight="bold" lengthAdjust="spacingAndGlyphs" textLength="119" x="253.5" y="38.9951">STEMgraph-API</text><ellipse cx="312.7915" cy="144.1583" fill="#FEFECE" filter="url(#f1krzk9ibkygli)" rx="88.7915" ry="20.1583" style="stroke: #A80036; stroke-width: 1.5;"/><text fill="#000000" font-family="sans-serif" font-size="14" lengthAdjust="spacingAndGlyphs" textLength="151" x="237.2915" y="148.8067">get whole STEMgraph</text><ellipse cx="313.1307" cy="218.0261" fill="#FEFECE" filter="url(#f1krzk9ibkygli)" rx="83.1307" ry="19.0261" style="stroke: #A80036; stroke-width: 1.5;"/><text fill="#000000" font-family="sans-serif" font-size="14" lengthAdjust="spacingAndGlyphs" textLength="138" x="244.1307" y="222.6746">get path to exercise</text><ellipse cx="312.8872" cy="292.7774" fill="#FEFECE" filter="url(#f1krzk9ibkygli)" rx="91.8872" ry="20.7774" style="stroke: #A80036; stroke-width: 1.5;"/><text fill="#000000" font-family="sans-serif" font-size="14" lengthAdjust="spacingAndGlyphs" textLength="158" x="233.8872" y="297.4259">get info about exercise</text><ellipse cx="313.0262" cy="367.0052" fill="#FEFECE" filter="url(#f1krzk9ibkygli)" rx="78.0262" ry="18.0052" style="stroke: #A80036; stroke-width: 1.5;"/><text fill="#000000" font-family="sans-serif" font-size="14" lengthAdjust="spacingAndGlyphs" textLength="126" x="250.0262" y="371.6537">get existing topics</text><ellipse cx="312.8259" cy="74.0236" fill="#FEFECE" filter="url(#f1krzk9ibkygli)" rx="55.3259" ry="14.5236" style="stroke: #A80036; stroke-width: 1.5;"/><text fill="#000000" font-family="sans-serif" font-size="14" lengthAdjust="spacingAndGlyphs" textLength="74" x="275.8259" y="78.6721">refresh DB</text><!--MD5=[97ab183161fd5d1db7fba7485cf76add]
entity Admin--><ellipse cx="139.5" cy="26" fill="#FEFECE" filter="url(#f1krzk9ibkygli)" rx="8" ry="8" style="stroke: #A80036; stroke-width: 1.5;"/><path d="M139.5,34 L139.5,61 M126.5,42 L152.5,42 M139.5,61 L126.5,76 M139.5,61 L152.5,76 " fill="none" filter="url(#f1krzk9ibkygli)" style="stroke: #A80036; stroke-width: 1.5;"/><text fill="#000000" font-family="sans-serif" font-size="14" lengthAdjust="spacingAndGlyphs" textLength="43" x="118" y="94.4951">Admin</text><!--MD5=[a91c048a4c5e0e5097e7f0abd686f77f]
entity Learner--><ellipse cx="32" cy="191" fill="#FEFECE" filter="url(#f1krzk9ibkygli)" rx="8" ry="8" style="stroke: #A80036; stroke-width: 1.5;"/><path d="M32,199 L32,226 M19,207 L45,207 M32,226 L19,241 M32,226 L45,241 " fill="none" filter="url(#f1krzk9ibkygli)" style="stroke: #A80036; stroke-width: 1.5;"/><text fill="#000000" font-family="sans-serif" font-size="14" lengthAdjust="spacingAndGlyphs" textLength="52" x="6" y="259.4951">Learner</text><!--MD5=[80b907cf173bb01128dea476b21e6de3]
reverse link Learner to Admin--><path d="M68.85,165.93 C85.21,140.35 103.99,110.97 117.93,89.17 " fill="none" id="Learner&lt;-Admin" style="stroke: #A80036; stroke-width: 1.0;"/><polygon fill="none" points="74.67,169.82,58,182.9,62.88,162.28,74.67,169.82" style="stroke: #A80036; stroke-width: 1.0;"/><!--MD5=[324d73186e8d8be2d8ddf78417729726]
link Admin to refresh DB--><path d="M161.19,59.05 C185.69,61.48 227.38,65.61 260.72,68.92 " fill="none" id="Admin-refresh DB" style="stroke: #A80036; stroke-width: 1.0;"/><!--MD5=[fd1c5bc86610e976ce007bd5cce153f9]
link Learner to get whole STEMgraph--><path d="M58.19,213.63 C75.05,208.12 97.78,200.87 118,195 C162.99,181.95 214.25,168.54 252.78,158.74 " fill="none" id="Learner-get whole STEMgraph" style="stroke: #A80036; stroke-width: 1.0;"/><!--MD5=[94dd564ef5bb65a4eebe8fe6a0a15406]
link Learner to get existing topics--><path d="M58.05,241.96 C89.11,265.89 144.39,305.91 197,331 C216.64,340.37 239.3,348.06 259.29,353.9 " fill="none" id="Learner-get existing topics" style="stroke: #A80036; stroke-width: 1.0;"/><!--MD5=[ddd9d9f92d0b8dd203fecdf19fbb024f]
link Learner to get path to exercise--><path d="M58.25,221.64 C96.68,221.09 171.56,220.01 230.06,219.17 " fill="none" id="Learner-get path to exercise" style="stroke: #A80036; stroke-width: 1.0;"/><!--MD5=[4600b7b85a2c024b73adb3d4f21f4f98]
link Learner to get info about exercise--><path d="M58.25,228.43 C101.44,239.42 190.67,262.12 250.95,277.46 " fill="none" id="Learner-get info about exercise" style="stroke: #A80036; stroke-width: 1.0;"/><!--MD5=[ea82e629ee61e034b68ca9d02f074e73]
@startuml

left to right direction
skinparam packageStyle rectangle

:Admin:
:Learner:
Learner <|- - Admin

rectangle STEMgraph-API {
	(get whole STEMgraph)
	(get path to exercise)
	(get info about exercise)
	(get existing topics)
	(refresh DB)
}

Admin - - (refresh DB)
Learner - - (get whole STEMgraph)
Learner - - (get existing topics)
Learner - - (get path to exercise)
Learner - - (get info about exercise)

@enduml

PlantUML version 1.2020.02(Sun Mar 01 11:22:07 CET 2020)
(GPL source distribution)
Java Runtime: OpenJDK Runtime Environment
JVM: OpenJDK 64-Bit Server VM
Java Version: 21.0.9+10-Debian-1deb13u1
Operating System: Linux
Default Encoding: UTF-8
Language: en
Country: GB
--></g></svg>